<?xml version="1.0" encoding="utf-8"?>
<!-- Generator: Adobe Illustrator 27.8.1, SVG Export Plug-In . SVG Version: 6.00 Build 0)  -->
<svg version="1.1" id="Layer_1" xmlns="http://www.w3.org/2000/svg" xmlns:xlink="http://www.w3.org/1999/xlink" x="0px" y="0px"
	 viewBox="0 0 32 32" style="enable-background:new 0 0 32 32;" xml:space="preserve">
<style type="text/css">
	.st0{fill:#0E426A;}
</style>
<g>
	<path class="st0" d="M25.4,11.9c0,2-0.5,3.9-1.6,5.5L16,29.2L8.4,17.4c-1.1-1.6-1.6-3.6-1.6-5.5c0-5.3,4.3-9.8,9.4-9.8
		C21.2,2,25.4,6.4,25.4,11.9z M16,0C9.8,0,4.6,5.3,4.6,11.9c0,2.3,0.7,4.6,2.1,6.6l8.5,13c0.2,0.4,0.4,0.5,0.7,0.5s0.5-0.2,0.7-0.4
		l8.5-13c1.4-2.1,2.1-4.4,2.1-6.8C27.4,5.3,22.2,0,16,0z"/>
	<path class="st0" d="M19.7,11.9c0,2.1-1.8,3.9-3.7,3.9c-2.1,0-3.7-1.8-3.7-3.9S14,8,16,8C18.1,7.8,19.7,9.6,19.7,11.9z M16,5.9
		c-3.2,0-5.7,2.7-5.7,6s2.5,5.9,5.7,5.9s5.7-2.7,5.7-6S19.2,5.9,16,5.9z"/>
</g>
</svg>
