<?xml version="1.0" encoding="utf-8"?>
<!-- Generator: Adobe Illustrator 27.8.1, SVG Export Plug-In . SVG Version: 6.00 Build 0)  -->
<svg version="1.1" id="Layer_1" xmlns="http://www.w3.org/2000/svg" xmlns:xlink="http://www.w3.org/1999/xlink" x="0px" y="0px"
	 viewBox="0 0 14 16" style="enable-background:new 0 0 14 16;" xml:space="preserve">
<style type="text/css">
	.st0{fill:#0E426A;}
</style>
<g>
	<path class="st0" d="M6.9,9.5C5.7,9.5,4.6,9,3.7,8.1C2.9,7.3,2.4,6.2,2.3,5l0-0.2h0l0-0.1c0-1.2,0.5-2.5,1.4-3.4
		C4.6,0.5,5.7,0,6.9,0C7,0,7.1,0,7.1,0c2.4,0.1,4.4,2.1,4.5,4.6c0,1.3-0.4,2.6-1.3,3.5C9.3,9,8.1,9.5,6.9,9.5L6.9,9.5z M6.7,1.1
		C5,1.1,3.4,2.8,3.4,4.8c0,0.9,0.4,1.9,1.1,2.6C5.2,8,6,8.4,7,8.4c0.1,0,0.1,0,0.2,0C8.1,8.3,9,7.9,9.6,7.1c0.5-0.5,1-1.4,0.8-2.8
		C10.3,2.8,9,1.1,7.1,1.1c-0.1,0-0.1,0-0.2,0C6.8,1.1,6.8,1.1,6.7,1.1z"/>
	<path class="st0" d="M0.7,16c-0.1,0-0.3-0.2-0.4-0.4c-0.1-0.1-0.1-0.3,0-0.4c0-0.1,0.2-0.4,0.2-0.4c0.2-0.5,0.4-1,0.8-1.4
		c0.3-0.5,0.8-1,1.4-1.5c0.1-0.1,0.2-0.1,0.3-0.2l0,0c0.3-0.2,0.6-0.5,0.9-0.6c0.8-0.4,1.4-0.6,2.1-0.7c0.1,0,0.1,0,0.2,0l0.1,0
		l0.3,0c0.2,0,0.4,0,0.4,0c0.1,0,0.3,0,0.4,0c0.9,0,1.6,0.2,2.4,0.5c0.7,0.3,1.4,0.7,2.1,1.4c0.6,0.5,1.1,1.2,1.5,2
		c0.1,0.3,0.3,0.6,0.4,0.9l0.1,0.2c0,0.1-0.1,0.4-0.3,0.5C13.5,16,13.4,16,13.3,16c-0.1,0-0.2,0-0.3-0.1c-0.2-0.1-0.3-0.3-0.4-0.6
		c0-0.1-0.1-0.1-0.1-0.2c-0.3-0.6-0.6-1.1-1-1.6c-0.5-0.5-1-1-1.6-1.3c-0.5-0.3-0.9-0.4-1.3-0.5c-0.1,0-0.2,0-0.3-0.1l0,0
		c-0.2,0-0.3-0.1-0.5-0.1c-0.3,0-0.7,0-1,0l-0.1,0c-0.5,0-0.9,0.1-1.4,0.2c-0.7,0.2-1.3,0.5-1.9,1c-0.6,0.5-1.2,1.1-1.6,1.9
		c-0.1,0.2-0.2,0.4-0.3,0.6c0,0.1-0.1,0.2-0.1,0.3C1.1,15.8,1,15.9,0.7,16L0.7,16L0.7,16z"/>
</g>
</svg>
